<svg xmlns="http://www.w3.org/2000/svg" width="115.445" height="105.827" viewBox="0 0 115.445 105.827">
  <g id="image" transform="translate(0 -0.492)">
    <path id="Path_39" data-name="Path 39" d="M30.061,199.211A18.011,18.011,0,0,1,13.023,186.94l-.168-.553a17.558,17.558,0,0,1-.832-5.214v-32.8L.353,187.329a10.924,10.924,0,0,0,7.658,13.252L82.393,220.5a11.034,11.034,0,0,0,2.771.356,10.725,10.725,0,0,0,10.4-7.865l4.334-13.781Zm0,0" transform="translate(0 -114.538)" fill="#eceff1"/>
    <path id="Path_40" data-name="Path 40" d="M181.526,11.315V66.634A10.84,10.84,0,0,1,170.7,77.458H96.143a12.633,12.633,0,0,1-1.4-.1,10.762,10.762,0,0,1-9.38-9.86,5.2,5.2,0,0,1-.048-.866V11.315A10.84,10.84,0,0,1,96.143.492H170.7a10.84,10.84,0,0,1,10.823,10.823Zm0,0" transform="translate(-66.082 0)" fill="#eceff1"/>
    <path id="Path_41" data-name="Path 41" d="M168.561,74.113a9.62,9.62,0,1,1-9.62-9.621A9.621,9.621,0,0,1,168.561,74.113Zm0,0" transform="translate(-115.651 -49.569)" fill="#ffc107"/>
    <path id="Path_42" data-name="Path 42" d="M213.911,138.543V152.06a10.84,10.84,0,0,1-10.823,10.823h-74.56a12.631,12.631,0,0,1-1.4-.1l49.546-49.545a8.477,8.477,0,0,1,11.929,0Zm0,0" transform="translate(-98.466 -85.426)" fill="#388e3c"/>
    <path id="Path_43" data-name="Path 43" d="M153.12,220.714H96.311a12.631,12.631,0,0,1-1.4-.1,10.762,10.762,0,0,1-9.38-9.86l22.849-22.85a8.479,8.479,0,0,1,11.929,0Zm0,0" transform="translate(-66.249 -143.256)" fill="#4caf50"/>
  </g>
</svg>
